<mxfile host="app.diagrams.net" modified="2024-03-25T21:01:28.896Z" agent="Mozilla/5.0 (Windows NT 10.0; Win64; x64) AppleWebKit/537.36 (KHTML, like Gecko) Chrome/122.0.0.0 Safari/537.36" etag="NZX159ZV8052QZJOJOHS" version="22.0.0" type="github" pages="3">
  <diagram name="Общая идея" id="2bwYTGhxeGfFmogsXjqD">
    <mxGraphModel dx="1674" dy="780" grid="1" gridSize="10" guides="1" tooltips="1" connect="1" arrows="1" fold="1" page="1" pageScale="1" pageWidth="827" pageHeight="1169" math="0" shadow="0">
      <root>
        <mxCell id="0" />
        <mxCell id="1" parent="0" />
        <mxCell id="OYHHkUaJmRrZgLOosAGr-9" style="edgeStyle=orthogonalEdgeStyle;rounded=0;orthogonalLoop=1;jettySize=auto;html=1;exitX=1;exitY=0.75;exitDx=0;exitDy=0;entryX=0;entryY=0.75;entryDx=0;entryDy=0;" edge="1" parent="1" source="OYHHkUaJmRrZgLOosAGr-6" target="OYHHkUaJmRrZgLOosAGr-7">
          <mxGeometry relative="1" as="geometry" />
        </mxCell>
        <mxCell id="OYHHkUaJmRrZgLOosAGr-6" value="Клиент" style="rounded=0;whiteSpace=wrap;html=1;" vertex="1" parent="1">
          <mxGeometry x="120" y="240" width="120" height="80" as="geometry" />
        </mxCell>
        <mxCell id="OYHHkUaJmRrZgLOosAGr-10" style="edgeStyle=orthogonalEdgeStyle;rounded=0;orthogonalLoop=1;jettySize=auto;html=1;exitX=0;exitY=0.25;exitDx=0;exitDy=0;entryX=1;entryY=0.25;entryDx=0;entryDy=0;" edge="1" parent="1" source="OYHHkUaJmRrZgLOosAGr-7" target="OYHHkUaJmRrZgLOosAGr-6">
          <mxGeometry relative="1" as="geometry" />
        </mxCell>
        <mxCell id="OYHHkUaJmRrZgLOosAGr-12" style="edgeStyle=orthogonalEdgeStyle;rounded=0;orthogonalLoop=1;jettySize=auto;html=1;exitX=0;exitY=0.5;exitDx=0;exitDy=0;entryX=1;entryY=0.25;entryDx=0;entryDy=0;" edge="1" parent="1" source="OYHHkUaJmRrZgLOosAGr-11" target="OYHHkUaJmRrZgLOosAGr-7">
          <mxGeometry relative="1" as="geometry" />
        </mxCell>
        <mxCell id="OYHHkUaJmRrZgLOosAGr-7" value="Сервер" style="rounded=0;whiteSpace=wrap;html=1;" vertex="1" parent="1">
          <mxGeometry x="360" y="240" width="120" height="80" as="geometry" />
        </mxCell>
        <mxCell id="OYHHkUaJmRrZgLOosAGr-11" value="ChatGpt API" style="rounded=0;whiteSpace=wrap;html=1;" vertex="1" parent="1">
          <mxGeometry x="560" y="120" width="160" height="80" as="geometry" />
        </mxCell>
        <mxCell id="OYHHkUaJmRrZgLOosAGr-14" style="edgeStyle=orthogonalEdgeStyle;rounded=0;orthogonalLoop=1;jettySize=auto;html=1;exitX=0;exitY=0.5;exitDx=0;exitDy=0;entryX=1;entryY=0.75;entryDx=0;entryDy=0;" edge="1" parent="1" source="OYHHkUaJmRrZgLOosAGr-13" target="OYHHkUaJmRrZgLOosAGr-7">
          <mxGeometry relative="1" as="geometry" />
        </mxCell>
        <mxCell id="OYHHkUaJmRrZgLOosAGr-13" value="&lt;h1 style=&quot;-webkit-tap-highlight-color: transparent; box-sizing: border-box; color: rgb(32, 33, 36); margin: 0px; -webkit-font-smoothing: antialiased; text-rendering: optimizelegibility; letter-spacing: -0.25px; line-height: 44px; text-align: start; background-color: rgb(255, 255, 255);&quot; class=&quot;o2Zj5b&quot;&gt;&lt;font style=&quot;font-size: 12px; font-weight: normal;&quot;&gt;Google text-to-speech API&amp;nbsp;&lt;/font&gt;&lt;/h1&gt;" style="rounded=0;whiteSpace=wrap;html=1;" vertex="1" parent="1">
          <mxGeometry x="560" y="360" width="160" height="80" as="geometry" />
        </mxCell>
        <mxCell id="OYHHkUaJmRrZgLOosAGr-16" style="edgeStyle=orthogonalEdgeStyle;rounded=0;orthogonalLoop=1;jettySize=auto;html=1;exitX=0;exitY=0.5;exitDx=0;exitDy=0;entryX=1;entryY=0.5;entryDx=0;entryDy=0;" edge="1" parent="1" source="OYHHkUaJmRrZgLOosAGr-15" target="OYHHkUaJmRrZgLOosAGr-7">
          <mxGeometry relative="1" as="geometry" />
        </mxCell>
        <mxCell id="OYHHkUaJmRrZgLOosAGr-15" value="База Данных" style="rounded=0;whiteSpace=wrap;html=1;" vertex="1" parent="1">
          <mxGeometry x="560" y="240" width="160" height="80" as="geometry" />
        </mxCell>
      </root>
    </mxGraphModel>
  </diagram>
  <diagram id="-82YfF26v0-vyWVtWHcq" name="Клиент-сценарии">
    <mxGraphModel dx="1674" dy="780" grid="1" gridSize="10" guides="1" tooltips="1" connect="1" arrows="1" fold="1" page="1" pageScale="1" pageWidth="827" pageHeight="1169" math="0" shadow="0">
      <root>
        <mxCell id="0" />
        <mxCell id="1" parent="0" />
        <mxCell id="0Nbw3E3UYZqNyOCrMP_M-4" style="edgeStyle=orthogonalEdgeStyle;rounded=0;orthogonalLoop=1;jettySize=auto;html=1;exitX=1;exitY=0.5;exitDx=0;exitDy=0;entryX=0;entryY=0.5;entryDx=0;entryDy=0;" edge="1" parent="1" source="0Nbw3E3UYZqNyOCrMP_M-1" target="0Nbw3E3UYZqNyOCrMP_M-3">
          <mxGeometry relative="1" as="geometry" />
        </mxCell>
        <mxCell id="0Nbw3E3UYZqNyOCrMP_M-1" value="Привет. Предложения с каким словом вы хотите послушать сегодня?" style="rounded=0;whiteSpace=wrap;html=1;" vertex="1" parent="1">
          <mxGeometry x="80" y="320" width="120" height="80" as="geometry" />
        </mxCell>
        <mxCell id="0Nbw3E3UYZqNyOCrMP_M-6" style="edgeStyle=orthogonalEdgeStyle;rounded=0;orthogonalLoop=1;jettySize=auto;html=1;exitX=1;exitY=0.5;exitDx=0;exitDy=0;entryX=0;entryY=0.5;entryDx=0;entryDy=0;" edge="1" parent="1" source="0Nbw3E3UYZqNyOCrMP_M-3" target="0Nbw3E3UYZqNyOCrMP_M-5">
          <mxGeometry relative="1" as="geometry" />
        </mxCell>
        <mxCell id="0Nbw3E3UYZqNyOCrMP_M-3" value="Введите слово" style="rounded=0;whiteSpace=wrap;html=1;" vertex="1" parent="1">
          <mxGeometry x="250" y="330" width="120" height="60" as="geometry" />
        </mxCell>
        <mxCell id="0Nbw3E3UYZqNyOCrMP_M-9" style="edgeStyle=orthogonalEdgeStyle;rounded=0;orthogonalLoop=1;jettySize=auto;html=1;exitX=1;exitY=0.5;exitDx=0;exitDy=0;entryX=0;entryY=0.5;entryDx=0;entryDy=0;" edge="1" parent="1" source="0Nbw3E3UYZqNyOCrMP_M-5" target="0Nbw3E3UYZqNyOCrMP_M-8">
          <mxGeometry relative="1" as="geometry" />
        </mxCell>
        <mxCell id="0Nbw3E3UYZqNyOCrMP_M-5" value="Отлично. Выберете уровень." style="rounded=0;whiteSpace=wrap;html=1;" vertex="1" parent="1">
          <mxGeometry x="420" y="330" width="120" height="60" as="geometry" />
        </mxCell>
        <mxCell id="0Nbw3E3UYZqNyOCrMP_M-26" style="edgeStyle=orthogonalEdgeStyle;rounded=0;orthogonalLoop=1;jettySize=auto;html=1;exitX=1;exitY=0.5;exitDx=0;exitDy=0;entryX=0;entryY=0.5;entryDx=0;entryDy=0;" edge="1" parent="1" source="0Nbw3E3UYZqNyOCrMP_M-8" target="0Nbw3E3UYZqNyOCrMP_M-25">
          <mxGeometry relative="1" as="geometry" />
        </mxCell>
        <mxCell id="0Nbw3E3UYZqNyOCrMP_M-8" value="Вам нужен перевод после каждого предложения?" style="rounded=0;whiteSpace=wrap;html=1;" vertex="1" parent="1">
          <mxGeometry x="580" y="330" width="120" height="60" as="geometry" />
        </mxCell>
        <mxCell id="0Nbw3E3UYZqNyOCrMP_M-16" style="edgeStyle=orthogonalEdgeStyle;rounded=0;orthogonalLoop=1;jettySize=auto;html=1;exitX=0.5;exitY=0;exitDx=0;exitDy=0;entryX=0.5;entryY=1;entryDx=0;entryDy=0;" edge="1" parent="1" source="0Nbw3E3UYZqNyOCrMP_M-11" target="0Nbw3E3UYZqNyOCrMP_M-5">
          <mxGeometry relative="1" as="geometry" />
        </mxCell>
        <mxCell id="0Nbw3E3UYZqNyOCrMP_M-11" value="Варианты" style="swimlane;fontStyle=0;childLayout=stackLayout;horizontal=1;startSize=30;horizontalStack=0;resizeParent=1;resizeParentMax=0;resizeLast=0;collapsible=1;marginBottom=0;whiteSpace=wrap;html=1;" vertex="1" parent="1">
          <mxGeometry x="410" y="430" width="140" height="210" as="geometry" />
        </mxCell>
        <mxCell id="0Nbw3E3UYZqNyOCrMP_M-12" value="A1" style="text;strokeColor=none;fillColor=none;align=left;verticalAlign=middle;spacingLeft=4;spacingRight=4;overflow=hidden;points=[[0,0.5],[1,0.5]];portConstraint=eastwest;rotatable=0;whiteSpace=wrap;html=1;" vertex="1" parent="0Nbw3E3UYZqNyOCrMP_M-11">
          <mxGeometry y="30" width="140" height="30" as="geometry" />
        </mxCell>
        <mxCell id="0Nbw3E3UYZqNyOCrMP_M-13" value="A2" style="text;strokeColor=none;fillColor=none;align=left;verticalAlign=middle;spacingLeft=4;spacingRight=4;overflow=hidden;points=[[0,0.5],[1,0.5]];portConstraint=eastwest;rotatable=0;whiteSpace=wrap;html=1;" vertex="1" parent="0Nbw3E3UYZqNyOCrMP_M-11">
          <mxGeometry y="60" width="140" height="30" as="geometry" />
        </mxCell>
        <mxCell id="0Nbw3E3UYZqNyOCrMP_M-14" value="B1" style="text;strokeColor=none;fillColor=none;align=left;verticalAlign=middle;spacingLeft=4;spacingRight=4;overflow=hidden;points=[[0,0.5],[1,0.5]];portConstraint=eastwest;rotatable=0;whiteSpace=wrap;html=1;" vertex="1" parent="0Nbw3E3UYZqNyOCrMP_M-11">
          <mxGeometry y="90" width="140" height="30" as="geometry" />
        </mxCell>
        <mxCell id="0Nbw3E3UYZqNyOCrMP_M-17" value="B2" style="text;strokeColor=none;fillColor=none;align=left;verticalAlign=middle;spacingLeft=4;spacingRight=4;overflow=hidden;points=[[0,0.5],[1,0.5]];portConstraint=eastwest;rotatable=0;whiteSpace=wrap;html=1;" vertex="1" parent="0Nbw3E3UYZqNyOCrMP_M-11">
          <mxGeometry y="120" width="140" height="30" as="geometry" />
        </mxCell>
        <mxCell id="0Nbw3E3UYZqNyOCrMP_M-18" value="C1" style="text;strokeColor=none;fillColor=none;align=left;verticalAlign=middle;spacingLeft=4;spacingRight=4;overflow=hidden;points=[[0,0.5],[1,0.5]];portConstraint=eastwest;rotatable=0;whiteSpace=wrap;html=1;" vertex="1" parent="0Nbw3E3UYZqNyOCrMP_M-11">
          <mxGeometry y="150" width="140" height="30" as="geometry" />
        </mxCell>
        <mxCell id="0Nbw3E3UYZqNyOCrMP_M-19" value="C2" style="text;strokeColor=none;fillColor=none;align=left;verticalAlign=middle;spacingLeft=4;spacingRight=4;overflow=hidden;points=[[0,0.5],[1,0.5]];portConstraint=eastwest;rotatable=0;whiteSpace=wrap;html=1;" vertex="1" parent="0Nbw3E3UYZqNyOCrMP_M-11">
          <mxGeometry y="180" width="140" height="30" as="geometry" />
        </mxCell>
        <mxCell id="0Nbw3E3UYZqNyOCrMP_M-24" style="edgeStyle=orthogonalEdgeStyle;rounded=0;orthogonalLoop=1;jettySize=auto;html=1;exitX=0.5;exitY=0;exitDx=0;exitDy=0;entryX=0.5;entryY=1;entryDx=0;entryDy=0;" edge="1" parent="1" source="0Nbw3E3UYZqNyOCrMP_M-20" target="0Nbw3E3UYZqNyOCrMP_M-8">
          <mxGeometry relative="1" as="geometry" />
        </mxCell>
        <mxCell id="0Nbw3E3UYZqNyOCrMP_M-20" value="Варианты" style="swimlane;fontStyle=0;childLayout=stackLayout;horizontal=1;startSize=30;horizontalStack=0;resizeParent=1;resizeParentMax=0;resizeLast=0;collapsible=1;marginBottom=0;whiteSpace=wrap;html=1;" vertex="1" parent="1">
          <mxGeometry x="570" y="430" width="140" height="90" as="geometry" />
        </mxCell>
        <mxCell id="0Nbw3E3UYZqNyOCrMP_M-21" value="Да" style="text;strokeColor=none;fillColor=none;align=left;verticalAlign=middle;spacingLeft=4;spacingRight=4;overflow=hidden;points=[[0,0.5],[1,0.5]];portConstraint=eastwest;rotatable=0;whiteSpace=wrap;html=1;" vertex="1" parent="0Nbw3E3UYZqNyOCrMP_M-20">
          <mxGeometry y="30" width="140" height="30" as="geometry" />
        </mxCell>
        <mxCell id="0Nbw3E3UYZqNyOCrMP_M-22" value="Нет" style="text;strokeColor=none;fillColor=none;align=left;verticalAlign=middle;spacingLeft=4;spacingRight=4;overflow=hidden;points=[[0,0.5],[1,0.5]];portConstraint=eastwest;rotatable=0;whiteSpace=wrap;html=1;" vertex="1" parent="0Nbw3E3UYZqNyOCrMP_M-20">
          <mxGeometry y="60" width="140" height="30" as="geometry" />
        </mxCell>
        <mxCell id="0Nbw3E3UYZqNyOCrMP_M-28" style="edgeStyle=orthogonalEdgeStyle;rounded=0;orthogonalLoop=1;jettySize=auto;html=1;exitX=1;exitY=0.5;exitDx=0;exitDy=0;entryX=0;entryY=0.5;entryDx=0;entryDy=0;" edge="1" parent="1" source="0Nbw3E3UYZqNyOCrMP_M-25" target="0Nbw3E3UYZqNyOCrMP_M-27">
          <mxGeometry relative="1" as="geometry" />
        </mxCell>
        <mxCell id="0Nbw3E3UYZqNyOCrMP_M-25" value="Генерация" style="ellipse;whiteSpace=wrap;html=1;" vertex="1" parent="1">
          <mxGeometry x="760" y="320" width="120" height="80" as="geometry" />
        </mxCell>
        <mxCell id="0Nbw3E3UYZqNyOCrMP_M-27" value="Вот ваш аудиофайл.&lt;br&gt;Наслаждайтесь." style="rounded=0;whiteSpace=wrap;html=1;" vertex="1" parent="1">
          <mxGeometry x="930" y="330" width="120" height="60" as="geometry" />
        </mxCell>
        <mxCell id="0Nbw3E3UYZqNyOCrMP_M-30" style="edgeStyle=orthogonalEdgeStyle;rounded=0;orthogonalLoop=1;jettySize=auto;html=1;exitX=0.5;exitY=1;exitDx=0;exitDy=0;" edge="1" parent="1" source="0Nbw3E3UYZqNyOCrMP_M-29">
          <mxGeometry relative="1" as="geometry">
            <mxPoint x="735" y="360" as="targetPoint" />
          </mxGeometry>
        </mxCell>
        <mxCell id="0Nbw3E3UYZqNyOCrMP_M-29" value="Можно добавить проверку текста" style="rhombus;whiteSpace=wrap;html=1;" vertex="1" parent="1">
          <mxGeometry x="650" y="160" width="170" height="140" as="geometry" />
        </mxCell>
      </root>
    </mxGraphModel>
  </diagram>
  <diagram id="kzK3yWGCh4VESjCdaIBl" name="Сервер-сценарий">
    <mxGraphModel dx="1674" dy="780" grid="1" gridSize="10" guides="1" tooltips="1" connect="1" arrows="1" fold="1" page="1" pageScale="1" pageWidth="827" pageHeight="1169" math="0" shadow="0">
      <root>
        <mxCell id="0" />
        <mxCell id="1" parent="0" />
        <mxCell id="5qT1WrePyJ_LGWOQgbus-7" value="lunch&lt;br&gt;B1&lt;br&gt;Перевод нужен" style="shape=process;whiteSpace=wrap;html=1;backgroundOutline=1;" vertex="1" parent="1">
          <mxGeometry x="100" y="270" width="120" height="180" as="geometry" />
        </mxCell>
        <mxCell id="5qT1WrePyJ_LGWOQgbus-8" value="Запрос" style="text;html=1;strokeColor=none;fillColor=none;align=center;verticalAlign=middle;whiteSpace=wrap;rounded=0;" vertex="1" parent="1">
          <mxGeometry x="130" y="240" width="60" height="30" as="geometry" />
        </mxCell>
      </root>
    </mxGraphModel>
  </diagram>
</mxfile>
